<?xml version="1.0" encoding="utf-8"?>
<!-- Generator: Adobe Illustrator 16.0.0, SVG Export Plug-In . SVG Version: 6.00 Build 0)  -->
<!DOCTYPE svg PUBLIC "-//W3C//DTD SVG 1.1//EN" "http://www.w3.org/Graphics/SVG/1.1/DTD/svg11.dtd">
<svg version="1.1" id="Layer_1" xmlns="http://www.w3.org/2000/svg" xmlns:xlink="http://www.w3.org/1999/xlink" x="0px" y="0px"
	 width="270px" height="270px" viewBox="0 0 270 270" enable-background="new 0 0 270 270" xml:space="preserve">
<path d="M135.01,126.4c14.11,0 25.6,-14.67 25.6,-32.71c0,-16.73 -10.29,-27.97 -25.6,-27.97s-25.59,11.24 -25.59,27.97C109.41,111.72 120.9,126.4 135.01,126.4zM185.36,9.47c-15.56,-6.26 -32.56,-9.71 -50.37,-9.71C66.12,-0.24 9.28,51.34 1.03,117.98C0.35,123.48 0,129.08 0,134.76c0,74.56 60.44,134.99 135,134.99c74.57,0 135,-60.43 135,-134.99C270,78 234.98,29.43 185.36,9.47zM135.01,55.21c21.26,0 36.11,15.82 36.11,38.48c0,23.83 -16.2,43.22 -36.11,43.22c-19.91,0 -36.11,-19.39 -36.11,-43.22C98.9,71.03 113.75,55.21 135.01,55.21zM194.38,209.39h-0.06c-2.87,0 -5.22,-2.31 -5.26,-5.19c-0.07,-5.84 -0.18,-10.87 -0.25,-11.69c-3.43,-31.46 -38.77,-34.85 -53.8,-34.85c-17.78,0 -48.36,4.13 -53.35,31.76c-0.44,2.44 -0.71,8.33 -0.71,11.3c0,2.91 -2.36,5.26 -5.26,5.26c-2.9,0 -5.26,-2.35 -5.26,-5.26c0,-2.86 0.26,-9.65 0.88,-13.15c4.64,-25.69 27.85,-40.42 63.7,-40.42c37.21,0 61.23,16.55 64.26,44.26c0.15,1.41 0.26,8.54 0.31,12.67C199.6,206.97 197.28,209.35 194.38,209.39z" fill="#B3B3B4" stroke="none" />
</svg>
